<?xml version="1.0" encoding="utf-8"?>
<!-- Generator: Adobe Illustrator 23.0.6, SVG Export Plug-In . SVG Version: 6.00 Build 0)  -->
<svg version="1.1" id="Calque_1" xmlns="http://www.w3.org/2000/svg" xmlns:xlink="http://www.w3.org/1999/xlink" x="0px" y="0px"
	 viewBox="0 0 666.5 219" style="enable-background:new 0 0 666.5 219;" xml:space="preserve">
<style type="text/css">
	.st0{fill:#0CB3E4;}
</style>
<g>
	<g>
		<g>
			<path class="st0" d="M194,114.5c0-4.1,0.7-8,2.2-11.6c1.4-3.6,3.5-6.8,6.3-9.6c2.7-2.7,6.1-4.9,10-6.5c3.9-1.6,8.3-2.4,13.3-2.4
				c5,0,9.5,0.8,13.4,2.4c3.9,1.6,7.3,3.8,10,6.5c2.7,2.7,4.8,5.9,6.3,9.6c1.4,3.6,2.2,7.5,2.2,11.6s-0.7,8-2.2,11.6
				c-1.4,3.7-3.5,6.8-6.3,9.6c-2.7,2.7-6.1,4.9-10,6.5c-3.9,1.6-8.4,2.4-13.4,2.4c-5,0-9.4-0.8-13.3-2.4c-3.9-1.6-7.2-3.8-10-6.5
				c-2.7-2.7-4.8-5.9-6.3-9.6C194.7,122.5,194,118.6,194,114.5 M212.2,114.5c0,2.1,0.3,4,1,5.8c0.6,1.8,1.5,3.3,2.7,4.7
				c1.2,1.3,2.6,2.4,4.3,3.2c1.7,0.8,3.5,1.1,5.6,1.1c2,0,3.9-0.4,5.6-1.1c1.7-0.8,3.2-1.8,4.3-3.2c1.2-1.3,2.1-2.9,2.8-4.6
				c0.7-1.8,1-3.7,1-5.8c0-2-0.3-3.9-1-5.7c-0.7-1.8-1.6-3.3-2.8-4.7c-1.2-1.3-2.6-2.4-4.3-3.2c-1.7-0.8-3.6-1.2-5.7-1.2
				c-2,0-3.9,0.4-5.6,1.2c-1.7,0.8-3.1,1.8-4.3,3.2c-1.2,1.3-2.1,2.9-2.7,4.7C212.5,110.6,212.2,112.5,212.2,114.5"/>
			<path class="st0" d="M268.8,143.1V85.9H287v8.3c1.6-3.1,4-5.5,7.2-7.2c3.2-1.7,7.1-2.6,11.6-2.6c3.9,0,7.2,0.6,9.7,1.9
				c2.5,1.2,4.6,2.8,6.2,4.7c1.8,2.2,3,4.8,3.6,7.6c0.6,2.9,0.9,6.4,0.9,10.5v34h-18.1v-29.3c0-4-0.7-7.3-2.2-9.9
				c-1.5-2.6-4.1-3.9-7.8-3.9c-3.8,0-6.6,1.3-8.4,3.9c-1.8,2.6-2.8,6.1-2.8,10.5v28.7H268.8z"/>
			<path class="st0" d="M337.1,114.5c0-4.2,0.6-8.1,1.9-11.8c1.3-3.6,3.2-6.8,5.8-9.5s5.7-4.9,9.4-6.5c3.7-1.6,8-2.4,12.8-2.4
				c4.6,0,8.7,0.7,12.4,2.1c3.7,1.4,6.8,3.4,9.4,5.9c2.6,2.5,4.6,5.5,5.9,8.9c1.4,3.4,2.1,7.1,2.1,11.1c0,1.1,0,2.1-0.1,2.9
				c-0.1,0.8-0.2,2-0.5,3.6h-41c0,1.7,0.2,3.3,0.7,4.8c0.4,1.5,1.1,2.8,2.1,3.9c0.9,1.1,2.2,2,3.8,2.6c1.6,0.6,3.5,1,5.8,1
				c3.3,0,5.7-0.6,7.3-1.8c1.6-1.2,2.7-2.6,3.4-4.3h17.8c-0.5,2.7-1.4,5.2-2.9,7.6c-1.5,2.4-3.4,4.4-5.8,6.2
				c-2.4,1.8-5.2,3.2-8.5,4.2c-3.3,1-7,1.6-11.1,1.6c-5,0-9.4-0.8-13.2-2.3c-3.8-1.5-7-3.7-9.6-6.4c-2.6-2.7-4.6-5.9-5.9-9.6
				C337.7,122.6,337.1,118.7,337.1,114.5 M355.2,108.5H379c0-3.3-1.1-5.8-3.3-7.8c-2.2-1.9-5.1-2.9-8.6-2.9c-3.4,0-6.2,0.9-8.5,2.7
				C356.3,102.4,355.2,105.1,355.2,108.5"/>
			<path class="st0" d="M409,159v-73h18.1v8.2c1.4-2.6,3.7-4.9,6.9-6.8c3.2-1.9,7-2.8,11.5-2.8c3.8,0,7.3,0.8,10.6,2.3
				c3.3,1.5,6.2,3.6,8.6,6.3c2.5,2.6,4.4,5.8,5.8,9.5c1.4,3.7,2.1,7.7,2.1,11.9c0,4.3-0.7,8.3-2.1,11.9c-1.4,3.7-3.3,6.8-5.8,9.5
				c-2.5,2.7-5.3,4.8-8.6,6.3c-3.3,1.5-6.8,2.3-10.6,2.3c-4.5,0-8.4-1-11.5-2.9c-3.2-1.9-5.5-4.2-6.9-6.8v24H409z M427.2,114.5
				c0,2,0.3,3.9,1,5.6c0.7,1.8,1.6,3.3,2.8,4.6c1.2,1.3,2.6,2.3,4.3,3.1c1.7,0.8,3.5,1.2,5.6,1.2c2,0,3.9-0.4,5.6-1.2
				c1.7-0.8,3.1-1.8,4.3-3.1c1.2-1.3,2.1-2.8,2.8-4.6c0.7-1.8,1-3.7,1-5.7c0-2-0.3-3.8-1-5.6c-0.7-1.8-1.6-3.3-2.8-4.6
				c-1.2-1.3-2.6-2.4-4.3-3.1c-1.7-0.8-3.5-1.2-5.6-1.2c-2,0-3.9,0.4-5.6,1.2c-1.7,0.8-3.1,1.8-4.3,3.1c-1.2,1.3-2.1,2.9-2.8,4.6
				C427.5,110.7,427.2,112.5,427.2,114.5"/>
			<path class="st0" d="M480.9,114.5c0-4.3,0.7-8.3,2.1-11.9c1.4-3.7,3.3-6.8,5.8-9.5c2.5-2.6,5.3-4.7,8.6-6.3
				c3.3-1.5,6.9-2.3,10.7-2.3c4.3,0,8,0.9,11.1,2.7c3.1,1.8,5.5,4.1,7.1,6.9v-8.2h18.1v57.2h-18.1v-8.1c-1.4,2.6-3.7,4.9-6.9,6.7
				c-3.2,1.9-6.9,2.8-11.3,2.8c-3.8,0-7.4-0.8-10.7-2.3c-3.3-1.5-6.2-3.7-8.7-6.3c-2.5-2.7-4.4-5.8-5.8-9.5
				C481.6,122.8,480.9,118.8,480.9,114.5 M499.1,114.5c0,2,0.3,3.9,1,5.6c0.7,1.8,1.6,3.3,2.8,4.6c1.2,1.3,2.6,2.3,4.3,3.1
				c1.7,0.8,3.5,1.2,5.6,1.2c2,0,3.9-0.4,5.6-1.2c1.7-0.8,3.1-1.8,4.3-3.1c1.2-1.3,2.1-2.8,2.8-4.6c0.7-1.8,1-3.7,1-5.7
				c0-2-0.3-3.8-1-5.6c-0.7-1.7-1.6-3.3-2.8-4.6c-1.2-1.4-2.6-2.4-4.2-3.2c-1.7-0.8-3.5-1.2-5.6-1.2c-2,0-3.9,0.4-5.6,1.2
				c-1.7,0.8-3.1,1.8-4.3,3.2c-1.2,1.4-2.1,2.9-2.8,4.6C499.4,110.7,499.1,112.5,499.1,114.5"/>
			<path class="st0" d="M559.7,143.1V85.9h18.1v9.3c1.4-2.7,3.6-5.1,6.7-7.2c3.1-2.1,6.8-3.1,11-3.1c2,0,3.7,0.3,5.2,1v16.5
				c-1.3-0.3-2.3-0.5-3.2-0.7c-0.9-0.1-1.9-0.2-3-0.2c-5.1,0-9.2,1.4-12.2,4.3c-3,2.9-4.5,7.9-4.5,14.9v22.3H559.7z"/>
			<polygon class="st0" points="609.1,143.1 609.1,60 627.2,60 627.2,110.2 644.9,85.9 666.5,85.9 644.2,114.5 666.4,143.1 
				644.8,143.1 627.2,119.1 627.2,143.1 			"/>
		</g>
	</g>
	<path class="st0" d="M126.2,21.8C111.9,7.8,93.3,0,73.9,0C33.2,0,0,33.2,0,73.9c0,62.8,47.1,112.6,61.5,126.3
		c4.3,4.1,16.9,16.7,25.5,18.5c0.6,0.1,1.2,0.2,1.8,0.2c0.1,0,0.1,0,0.2,0c0,0,0,0,0,0c0.1,0,0.2,0,0.3,0l0,0
		c3.8-0.2,6.8-3.4,6.8-7.2l0,0v0l0,0l0,0l0-87.2h0.3c14.6,0,28.1-6.4,37.9-18.1c8.5-10.1,13.6-23.4,13.6-35.7
		C147.9,53.2,140,35.4,126.2,21.8z M96.4,115.6h-0.3l0-23.1c0-17.6-14.3-31.9-31.9-31.9c-17.6,0-31.9,14.3-31.9,31.9
		s14.3,31.9,31.9,31.9h23.1v84.8c-6.3-3.3-23.6-16.6-41.7-40.2C28.8,147.4,8.9,113.2,8.9,73.9c0-35.9,29.2-65.1,65.1-65.1
		c17,0,33.4,6.9,46,19.3c12.1,11.9,19,27.4,19,42.5C139,89.1,123.8,115.6,96.4,115.6z M87.2,115.6H64.1c-12.7,0-23.1-10.3-23.1-23.1
		s10.3-23.1,23.1-23.1c12.7,0,23.1,10.3,23.1,23.1L87.2,115.6z"/>
</g>
</svg>
